<mxfile host="65bd71144e">
    <diagram id="dNFkojfkoE8Q-ND4W3VJ" name="Page-1">
        <mxGraphModel dx="-1636" dy="-444" grid="1" gridSize="10" guides="1" tooltips="1" connect="1" arrows="1" fold="1" page="1" pageScale="1" pageWidth="850" pageHeight="1100" background="#ffffff" math="0" shadow="0">
            <root>
                <mxCell id="0"/>
                <mxCell id="1" parent="0"/>
                <mxCell id="255" value="Network schedule" style="text;html=1;strokeColor=none;fillColor=none;align=left;verticalAlign=middle;whiteSpace=wrap;rounded=0;fontSize=20;fontColor=#000000;fontFamily=Helvetica;spacing=0;" parent="1" vertex="1">
                    <mxGeometry x="2640" y="1340" width="100" height="60" as="geometry"/>
                </mxCell>
                <mxCell id="256" value="Network process" style="text;html=1;strokeColor=none;fillColor=none;align=left;verticalAlign=middle;whiteSpace=wrap;rounded=0;fontSize=20;fontColor=#000000;fontFamily=Helvetica;spacing=0;" parent="1" vertex="1">
                    <mxGeometry x="2640" y="1420" width="100" height="60" as="geometry"/>
                </mxCell>
                <mxCell id="257" value="DC User process" style="text;html=1;strokeColor=none;fillColor=none;align=left;verticalAlign=middle;whiteSpace=wrap;rounded=0;fontSize=20;fontColor=#000000;fontFamily=Helvetica;spacing=0;" parent="1" vertex="1">
                    <mxGeometry x="2640" y="1500" width="100" height="60" as="geometry"/>
                </mxCell>
                <mxCell id="258" style="edgeStyle=orthogonalEdgeStyle;rounded=1;orthogonalLoop=1;jettySize=auto;html=1;strokeWidth=2;endArrow=none;endFill=0;" parent="1" edge="1">
                    <mxGeometry relative="1" as="geometry">
                        <mxPoint x="3460" y="1475" as="targetPoint"/>
                        <mxPoint x="2770" y="1475" as="sourcePoint"/>
                    </mxGeometry>
                </mxCell>
                <mxCell id="259" style="edgeStyle=orthogonalEdgeStyle;rounded=1;orthogonalLoop=1;jettySize=auto;html=1;strokeWidth=2;endArrow=none;endFill=0;" parent="1" edge="1">
                    <mxGeometry relative="1" as="geometry">
                        <mxPoint x="3460" y="1555" as="targetPoint"/>
                        <mxPoint x="2770" y="1555" as="sourcePoint"/>
                    </mxGeometry>
                </mxCell>
                <mxCell id="260" value="Time bin N" style="rounded=0;whiteSpace=wrap;html=1;strokeWidth=2;fillColor=#f5f5f5;strokeColor=#666666;fontFamily=Helvetica;fontSize=19;" parent="1" vertex="1">
                    <mxGeometry x="2895" y="1355" width="120" height="40" as="geometry"/>
                </mxCell>
                <mxCell id="261" value="Time bin N+1" style="rounded=0;whiteSpace=wrap;html=1;strokeWidth=2;fillColor=#f5f5f5;strokeColor=#666666;fontFamily=Helvetica;fontSize=19;" parent="1" vertex="1">
                    <mxGeometry x="3015" y="1355" width="120" height="40" as="geometry"/>
                </mxCell>
                <mxCell id="262" value="C1" style="rounded=0;whiteSpace=wrap;html=1;strokeWidth=2;fillColor=#d5e8d4;strokeColor=#82b366;" parent="1" vertex="1">
                    <mxGeometry x="2935" y="1514.38" width="40" height="40" as="geometry"/>
                </mxCell>
                <mxCell id="263" value="" style="shape=card;whiteSpace=wrap;html=1;size=100;rotation=-90;fillColor=#dae8fc;strokeColor=#6c8ebf;strokeWidth=2;" parent="1" vertex="1">
                    <mxGeometry x="2842.5" y="1392.5" width="40" height="125" as="geometry"/>
                </mxCell>
                <mxCell id="264" value="LGT User process" style="text;html=1;strokeColor=none;fillColor=none;align=left;verticalAlign=middle;whiteSpace=wrap;rounded=0;fontSize=20;fontColor=#000000;fontFamily=Helvetica;spacing=0;" parent="1" vertex="1">
                    <mxGeometry x="2640" y="1580" width="100" height="60" as="geometry"/>
                </mxCell>
                <mxCell id="265" style="edgeStyle=orthogonalEdgeStyle;rounded=1;orthogonalLoop=1;jettySize=auto;html=1;strokeWidth=2;endArrow=none;endFill=0;" parent="1" edge="1">
                    <mxGeometry relative="1" as="geometry">
                        <mxPoint x="3460" y="1635" as="targetPoint"/>
                        <mxPoint x="2770" y="1635" as="sourcePoint"/>
                    </mxGeometry>
                </mxCell>
                <mxCell id="266" value="L" style="rounded=0;whiteSpace=wrap;html=1;strokeWidth=2;fillColor=#d5e8d4;strokeColor=#82b366;" parent="1" vertex="1">
                    <mxGeometry x="2975" y="1595" width="40" height="40" as="geometry"/>
                </mxCell>
                <mxCell id="267" value="" style="html=1;aspect=fixed;strokeColor=none;shadow=0;align=center;verticalAlign=top;shape=mxgraph.gcp2.check;fontFamily=Times New Roman;fontSize=20;fillColor=#6C8EBF;" parent="1" vertex="1">
                    <mxGeometry x="2925.32" y="1410" width="25" height="20" as="geometry"/>
                </mxCell>
                <mxCell id="268" style="edgeStyle=orthogonalEdgeStyle;rounded=1;orthogonalLoop=1;jettySize=auto;html=1;strokeWidth=2;" parent="1" edge="1">
                    <mxGeometry relative="1" as="geometry">
                        <mxPoint x="2935.25" y="1494.38" as="targetPoint"/>
                        <mxPoint x="2935" y="1554.38" as="sourcePoint"/>
                        <Array as="points">
                            <mxPoint x="2935" y="1524"/>
                        </Array>
                    </mxGeometry>
                </mxCell>
                <mxCell id="269" value="Resume C1" style="text;html=1;align=center;verticalAlign=middle;whiteSpace=wrap;rounded=0;" parent="1" vertex="1">
                    <mxGeometry x="2865" y="1480" width="70" height="30" as="geometry"/>
                </mxCell>
                <mxCell id="270" value="" style="html=1;aspect=fixed;strokeColor=none;shadow=0;align=center;verticalAlign=top;shape=mxgraph.gcp2.check;fontFamily=Times New Roman;fontSize=20;fillColor=#82B366;" parent="1" vertex="1">
                    <mxGeometry x="2975" y="1490" width="25" height="20" as="geometry"/>
                </mxCell>
                <mxCell id="271" value="" style="html=1;aspect=fixed;strokeColor=none;shadow=0;align=center;verticalAlign=top;shape=mxgraph.gcp2.check;fontFamily=Times New Roman;fontSize=20;fillColor=#82B366;" parent="1" vertex="1">
                    <mxGeometry x="3015" y="1570" width="25" height="20" as="geometry"/>
                </mxCell>
                <mxCell id="272" value="Network process" style="text;html=1;strokeColor=none;fillColor=none;align=left;verticalAlign=middle;whiteSpace=wrap;rounded=0;fontSize=20;fontColor=#000000;fontFamily=Helvetica;spacing=0;" parent="1" vertex="1">
                    <mxGeometry x="2640" y="1179.37" width="100" height="60" as="geometry"/>
                </mxCell>
                <mxCell id="273" value="DC User process" style="text;html=1;strokeColor=none;fillColor=none;align=left;verticalAlign=middle;whiteSpace=wrap;rounded=0;fontSize=20;fontColor=#000000;fontFamily=Helvetica;spacing=0;" parent="1" vertex="1">
                    <mxGeometry x="2640" y="1259.37" width="100" height="60" as="geometry"/>
                </mxCell>
                <mxCell id="274" style="edgeStyle=orthogonalEdgeStyle;rounded=1;orthogonalLoop=1;jettySize=auto;html=1;strokeWidth=2;endArrow=none;endFill=0;" parent="1" edge="1">
                    <mxGeometry relative="1" as="geometry">
                        <mxPoint x="3460" y="1234" as="targetPoint"/>
                        <mxPoint x="2770" y="1234.37" as="sourcePoint"/>
                        <Array as="points">
                            <mxPoint x="3290" y="1234"/>
                            <mxPoint x="3290" y="1234"/>
                        </Array>
                    </mxGeometry>
                </mxCell>
                <mxCell id="275" style="edgeStyle=orthogonalEdgeStyle;rounded=1;orthogonalLoop=1;jettySize=auto;html=1;strokeWidth=2;endArrow=none;endFill=0;" parent="1" edge="1">
                    <mxGeometry relative="1" as="geometry">
                        <mxPoint x="3460" y="1314" as="targetPoint"/>
                        <mxPoint x="2770" y="1314.37" as="sourcePoint"/>
                        <Array as="points">
                            <mxPoint x="3290" y="1314"/>
                            <mxPoint x="3290" y="1314"/>
                        </Array>
                    </mxGeometry>
                </mxCell>
                <mxCell id="276" value="S1" style="rounded=0;whiteSpace=wrap;html=1;strokeWidth=2;fillColor=#d5e8d4;strokeColor=#82b366;" parent="1" vertex="1">
                    <mxGeometry x="2934.71" y="1274.0700000000002" width="40" height="40" as="geometry"/>
                </mxCell>
                <mxCell id="277" value="" style="shape=card;whiteSpace=wrap;html=1;size=100;rotation=-90;fillColor=#dae8fc;strokeColor=#6c8ebf;strokeWidth=2;" parent="1" vertex="1">
                    <mxGeometry x="2843.29" y="1152.03" width="40" height="124.69" as="geometry"/>
                </mxCell>
                <mxCell id="278" value="" style="html=1;aspect=fixed;strokeColor=none;shadow=0;align=center;verticalAlign=top;shape=mxgraph.gcp2.check;fontFamily=Times New Roman;fontSize=20;fillColor=#6C8EBF;" parent="1" vertex="1">
                    <mxGeometry x="2925.32" y="1169.37" width="25" height="20" as="geometry"/>
                </mxCell>
                <mxCell id="279" style="edgeStyle=orthogonalEdgeStyle;rounded=1;orthogonalLoop=1;jettySize=auto;html=1;strokeWidth=2;" parent="1" edge="1">
                    <mxGeometry relative="1" as="geometry">
                        <mxPoint x="2934.96" y="1254.0700000000002" as="targetPoint"/>
                        <mxPoint x="2934.71" y="1314.0700000000002" as="sourcePoint"/>
                        <Array as="points">
                            <mxPoint x="2935" y="1284"/>
                            <mxPoint x="2935" y="1284"/>
                        </Array>
                    </mxGeometry>
                </mxCell>
                <mxCell id="280" value="Resume S1" style="text;html=1;align=center;verticalAlign=middle;whiteSpace=wrap;rounded=0;" parent="1" vertex="1">
                    <mxGeometry x="2855.32" y="1239.37" width="70" height="30" as="geometry"/>
                </mxCell>
                <mxCell id="281" value="" style="html=1;aspect=fixed;strokeColor=none;shadow=0;align=center;verticalAlign=top;shape=mxgraph.gcp2.check;fontFamily=Times New Roman;fontSize=20;fillColor=#82B366;" parent="1" vertex="1">
                    <mxGeometry x="2974.71" y="1249.69" width="25" height="20" as="geometry"/>
                </mxCell>
                <mxCell id="282" value="Submit S2" style="text;html=1;align=center;verticalAlign=middle;whiteSpace=wrap;rounded=0;" parent="1" vertex="1">
                    <mxGeometry x="3010.83" y="1235" width="60" height="30" as="geometry"/>
                </mxCell>
                <mxCell id="283" value="S2" style="rounded=0;whiteSpace=wrap;html=1;strokeWidth=2;fillColor=#d5e8d4;strokeColor=#82b366;" parent="1" vertex="1">
                    <mxGeometry x="3015.54" y="1274.7000000000003" width="40" height="40" as="geometry"/>
                </mxCell>
                <mxCell id="284" style="edgeStyle=orthogonalEdgeStyle;rounded=1;orthogonalLoop=1;jettySize=auto;html=1;strokeWidth=2;" parent="1" edge="1">
                    <mxGeometry relative="1" as="geometry">
                        <mxPoint x="3015.54" y="1255.9500000000003" as="targetPoint"/>
                        <mxPoint x="3015.29" y="1315.9500000000003" as="sourcePoint"/>
                        <Array as="points">
                            <mxPoint x="3015" y="1286"/>
                        </Array>
                    </mxGeometry>
                </mxCell>
                <mxCell id="285" style="edgeStyle=orthogonalEdgeStyle;rounded=1;orthogonalLoop=1;jettySize=auto;html=1;strokeWidth=2;" parent="1" edge="1">
                    <mxGeometry relative="1" as="geometry">
                        <mxPoint x="3189.1" y="1255.0100000000002" as="targetPoint"/>
                        <mxPoint x="3188.85" y="1315.0100000000002" as="sourcePoint"/>
                        <Array as="points">
                            <mxPoint x="3190" y="1315"/>
                            <mxPoint x="3190" y="1285"/>
                            <mxPoint x="3189" y="1285"/>
                        </Array>
                    </mxGeometry>
                </mxCell>
                <mxCell id="286" value="Submit S1" style="text;html=1;align=center;verticalAlign=middle;whiteSpace=wrap;rounded=0;" parent="1" vertex="1">
                    <mxGeometry x="3125.32" y="1244.07" width="60" height="30" as="geometry"/>
                </mxCell>
                <mxCell id="287" value="Time bin N+2" style="rounded=0;whiteSpace=wrap;html=1;strokeWidth=2;fillColor=#f5f5f5;strokeColor=#666666;fontFamily=Helvetica;fontSize=19;" parent="1" vertex="1">
                    <mxGeometry x="3135" y="1355" width="120" height="40" as="geometry"/>
                </mxCell>
                <mxCell id="288" value="C1" style="rounded=0;whiteSpace=wrap;html=1;strokeWidth=2;fillColor=#d5e8d4;strokeColor=#82b366;" parent="1" vertex="1">
                    <mxGeometry x="3027.5" y="1513.7600000000002" width="40" height="40" as="geometry"/>
                </mxCell>
                <mxCell id="289" style="edgeStyle=orthogonalEdgeStyle;rounded=1;orthogonalLoop=1;jettySize=auto;html=1;strokeWidth=2;" parent="1" edge="1">
                    <mxGeometry relative="1" as="geometry">
                        <mxPoint x="3027.5" y="1494.38" as="targetPoint"/>
                        <mxPoint x="3027.25" y="1554.38" as="sourcePoint"/>
                        <Array as="points">
                            <mxPoint x="3027" y="1524"/>
                            <mxPoint x="3028" y="1524"/>
                        </Array>
                    </mxGeometry>
                </mxCell>
                <mxCell id="290" value="" style="group" parent="1" vertex="1" connectable="0">
                    <mxGeometry x="3067.5" y="1493.7600000000002" width="20" height="20" as="geometry"/>
                </mxCell>
                <mxCell id="291" value="" style="ellipse;whiteSpace=wrap;html=1;aspect=fixed;strokeWidth=2;fillColor=#82B366;fontFamily=Times New Roman;fontSize=20;align=left;strokeColor=none;" parent="290" vertex="1">
                    <mxGeometry width="20" height="20" as="geometry"/>
                </mxCell>
                <mxCell id="292" value="" style="rounded=0;whiteSpace=wrap;html=1;strokeWidth=2;fontFamily=Times New Roman;fontSize=20;align=left;strokeColor=none;fillColor=#FFFFFF;" parent="290" vertex="1">
                    <mxGeometry x="4" y="7.5" width="12" height="5" as="geometry"/>
                </mxCell>
                <mxCell id="293" value="Submit C1" style="text;html=1;align=center;verticalAlign=middle;whiteSpace=wrap;rounded=0;" parent="1" vertex="1">
                    <mxGeometry x="3027.5" y="1470" width="60" height="30" as="geometry"/>
                </mxCell>
                <mxCell id="294" value="L" style="rounded=0;whiteSpace=wrap;html=1;strokeWidth=2;fillColor=#d5e8d4;strokeColor=#82b366;" parent="1" vertex="1">
                    <mxGeometry x="3085" y="1595" width="40" height="40" as="geometry"/>
                </mxCell>
                <mxCell id="295" style="edgeStyle=orthogonalEdgeStyle;rounded=1;orthogonalLoop=1;jettySize=auto;html=1;strokeWidth=2;" parent="1" edge="1">
                    <mxGeometry relative="1" as="geometry">
                        <mxPoint x="3085" y="1575" as="targetPoint"/>
                        <mxPoint x="3085" y="1635" as="sourcePoint"/>
                    </mxGeometry>
                </mxCell>
                <mxCell id="296" value="Submit L" style="text;html=1;align=center;verticalAlign=middle;whiteSpace=wrap;rounded=0;" parent="1" vertex="1">
                    <mxGeometry x="3037.5" y="1560" width="60" height="30" as="geometry"/>
                </mxCell>
                <mxCell id="297" value="" style="html=1;aspect=fixed;strokeColor=none;shadow=0;align=center;verticalAlign=top;shape=mxgraph.gcp2.check;fontFamily=Times New Roman;fontSize=20;fillColor=#82B366;" parent="1" vertex="1">
                    <mxGeometry x="3125" y="1570" width="25" height="20" as="geometry"/>
                </mxCell>
                <mxCell id="298" value="" style="shape=card;whiteSpace=wrap;html=1;size=100;rotation=90;fillColor=#dae8fc;strokeColor=#6c8ebf;strokeWidth=2;" parent="1" vertex="1">
                    <mxGeometry x="3187.66" y="1382.65" width="40" height="144.69" as="geometry"/>
                </mxCell>
                <mxCell id="299" style="edgeStyle=orthogonalEdgeStyle;rounded=1;orthogonalLoop=1;jettySize=auto;html=1;strokeWidth=2;" parent="1" edge="1">
                    <mxGeometry relative="1" as="geometry">
                        <mxPoint x="3134.96" y="1415" as="targetPoint"/>
                        <mxPoint x="3134.71" y="1475" as="sourcePoint"/>
                        <Array as="points">
                            <mxPoint x="3135" y="1445"/>
                        </Array>
                    </mxGeometry>
                </mxCell>
                <mxCell id="300" value="Time bin start" style="text;html=1;align=center;verticalAlign=middle;whiteSpace=wrap;rounded=0;" parent="1" vertex="1">
                    <mxGeometry x="3074.71" y="1400" width="60" height="30" as="geometry"/>
                </mxCell>
                <mxCell id="301" style="edgeStyle=orthogonalEdgeStyle;rounded=1;orthogonalLoop=1;jettySize=auto;html=1;strokeWidth=2;" parent="1" edge="1">
                    <mxGeometry relative="1" as="geometry">
                        <mxPoint x="3134.42" y="1174.37" as="targetPoint"/>
                        <mxPoint x="3134.17" y="1234.37" as="sourcePoint"/>
                    </mxGeometry>
                </mxCell>
                <mxCell id="302" value="Time bin start" style="text;html=1;align=center;verticalAlign=middle;whiteSpace=wrap;rounded=0;" parent="1" vertex="1">
                    <mxGeometry x="3074.17" y="1159.37" width="60" height="30" as="geometry"/>
                </mxCell>
                <mxCell id="303" value="" style="shape=card;whiteSpace=wrap;html=1;size=100;rotation=90;fillColor=#dae8fc;strokeColor=#6c8ebf;strokeWidth=2;" parent="1" vertex="1">
                    <mxGeometry x="3190" y="1140" width="40" height="148.75" as="geometry"/>
                </mxCell>
                <mxCell id="304" value="..." style="text;html=1;align=center;verticalAlign=middle;whiteSpace=wrap;rounded=0;fontSize=28;" parent="1" vertex="1">
                    <mxGeometry x="3247.82" y="1189.37" width="60" height="30" as="geometry"/>
                </mxCell>
                <mxCell id="305" value="" style="rounded=0;whiteSpace=wrap;html=1;strokeWidth=2;fillColor=#f5f5f5;strokeColor=#666666;fontFamily=Helvetica;fontSize=19;dashed=1;" parent="1" vertex="1">
                    <mxGeometry x="3255" y="1355" width="120" height="40" as="geometry"/>
                </mxCell>
                <mxCell id="306" value="..." style="text;html=1;align=center;verticalAlign=middle;whiteSpace=wrap;rounded=0;fontSize=19;fontFamily=Helvetica;" parent="1" vertex="1">
                    <mxGeometry x="3285" y="1355" width="60" height="30" as="geometry"/>
                </mxCell>
                <mxCell id="307" value="Server" style="shape=curlyBracket;whiteSpace=wrap;html=1;rounded=1;labelPosition=left;verticalLabelPosition=middle;align=center;verticalAlign=middle;horizontal=0;fontSize=18;" parent="1" vertex="1">
                    <mxGeometry x="2600" y="1179.37" width="20" height="140.63" as="geometry"/>
                </mxCell>
                <mxCell id="308" value="Client" style="shape=curlyBracket;whiteSpace=wrap;html=1;rounded=1;labelPosition=left;verticalLabelPosition=middle;align=center;verticalAlign=middle;horizontal=0;fontSize=18;" parent="1" vertex="1">
                    <mxGeometry x="2600" y="1422.19" width="20" height="222.81" as="geometry"/>
                </mxCell>
                <mxCell id="309" value="" style="rounded=0;whiteSpace=wrap;html=1;strokeWidth=2;fillColor=#f5f5f5;strokeColor=#666666;fontFamily=Helvetica;fontSize=19;dashed=1;" parent="1" vertex="1">
                    <mxGeometry x="2775.32" y="1355" width="120" height="40" as="geometry"/>
                </mxCell>
                <mxCell id="310" style="edgeStyle=orthogonalEdgeStyle;rounded=1;orthogonalLoop=1;jettySize=auto;html=1;strokeWidth=2;" parent="1" edge="1">
                    <mxGeometry relative="1" as="geometry">
                        <mxPoint x="2780" y="1575.62" as="targetPoint"/>
                        <mxPoint x="2780" y="1635.62" as="sourcePoint"/>
                    </mxGeometry>
                </mxCell>
                <mxCell id="311" value="Submit L" style="text;html=1;align=center;verticalAlign=middle;whiteSpace=wrap;rounded=0;" parent="1" vertex="1">
                    <mxGeometry x="2740" y="1554.38" width="60" height="30" as="geometry"/>
                </mxCell>
                <mxCell id="312" value="" style="html=1;aspect=fixed;strokeColor=none;shadow=0;align=center;verticalAlign=top;shape=mxgraph.gcp2.check;fontFamily=Times New Roman;fontSize=20;fillColor=#82B366;" parent="1" vertex="1">
                    <mxGeometry x="3055" y="1250.3200000000002" width="25" height="20" as="geometry"/>
                </mxCell>
                <mxCell id="313" value="..." style="text;html=1;align=center;verticalAlign=middle;whiteSpace=wrap;rounded=0;fontSize=19;fontFamily=Helvetica;" parent="1" vertex="1">
                    <mxGeometry x="2805" y="1355" width="60" height="30" as="geometry"/>
                </mxCell>
                <mxCell id="314" value="" style="shape=card;whiteSpace=wrap;html=1;size=100;rotation=-90;fillColor=#dae8fc;strokeColor=#6c8ebf;strokeWidth=2;" parent="1" vertex="1">
                    <mxGeometry x="3287.3900000000003" y="1182.89" width="40" height="62.97" as="geometry"/>
                </mxCell>
                <mxCell id="315" value="S1" style="rounded=0;whiteSpace=wrap;html=1;strokeWidth=2;fillColor=#d5e8d4;strokeColor=#82b366;" parent="1" vertex="1">
                    <mxGeometry x="3351" y="1273.7500000000002" width="40" height="40" as="geometry"/>
                </mxCell>
                <mxCell id="316" value="" style="group" parent="1" vertex="1" connectable="0">
                    <mxGeometry x="3381.83" y="1250.0000000000005" width="20" height="20" as="geometry"/>
                </mxCell>
                <mxCell id="317" value="" style="ellipse;whiteSpace=wrap;html=1;aspect=fixed;strokeWidth=2;fillColor=#82B366;fontFamily=Times New Roman;fontSize=20;align=left;strokeColor=none;" parent="316" vertex="1">
                    <mxGeometry width="20" height="20" as="geometry"/>
                </mxCell>
                <mxCell id="318" value="" style="rounded=0;whiteSpace=wrap;html=1;strokeWidth=2;fontFamily=Times New Roman;fontSize=20;align=left;strokeColor=none;fillColor=#FFFFFF;" parent="316" vertex="1">
                    <mxGeometry x="4" y="7.5" width="12" height="5" as="geometry"/>
                </mxCell>
                <mxCell id="319" value="S1" style="rounded=0;whiteSpace=wrap;html=1;strokeWidth=2;fillColor=#d5e8d4;strokeColor=#82b366;" parent="1" vertex="1">
                    <mxGeometry x="3396.83" y="1273.9300000000003" width="40" height="40" as="geometry"/>
                </mxCell>
                <mxCell id="320" value="" style="html=1;aspect=fixed;strokeColor=none;shadow=0;align=center;verticalAlign=top;shape=mxgraph.gcp2.check;fontFamily=Times New Roman;fontSize=20;fillColor=#82B366;" parent="1" vertex="1">
                    <mxGeometry x="3429.33" y="1250.0000000000002" width="25" height="20" as="geometry"/>
                </mxCell>
                <mxCell id="321" value="..." style="text;html=1;align=center;verticalAlign=middle;whiteSpace=wrap;rounded=0;fontSize=28;" parent="1" vertex="1">
                    <mxGeometry x="3243.25" y="1429.9899999999998" width="60" height="30" as="geometry"/>
                </mxCell>
                <mxCell id="322" value="" style="shape=card;whiteSpace=wrap;html=1;size=100;rotation=-90;fillColor=#dae8fc;strokeColor=#6c8ebf;strokeWidth=2;" parent="1" vertex="1">
                    <mxGeometry x="3287.3899999999994" y="1423.5099999999998" width="40" height="62.97" as="geometry"/>
                </mxCell>
                <mxCell id="323" value="C1" style="rounded=0;whiteSpace=wrap;html=1;strokeWidth=2;fillColor=#d5e8d4;strokeColor=#82b366;" parent="1" vertex="1">
                    <mxGeometry x="3352.5" y="1514.38" width="40" height="40" as="geometry"/>
                </mxCell>
                <mxCell id="324" value="Resume C1" style="text;html=1;align=center;verticalAlign=middle;whiteSpace=wrap;rounded=0;" parent="1" vertex="1">
                    <mxGeometry x="3282.4999999999995" y="1480" width="70" height="30" as="geometry"/>
                </mxCell>
                <mxCell id="325" value="" style="html=1;aspect=fixed;strokeColor=none;shadow=0;align=center;verticalAlign=top;shape=mxgraph.gcp2.check;fontFamily=Times New Roman;fontSize=20;fillColor=#82B366;" parent="1" vertex="1">
                    <mxGeometry x="3392.5" y="1490" width="25" height="20" as="geometry"/>
                </mxCell>
                <mxCell id="326" style="edgeStyle=orthogonalEdgeStyle;rounded=1;orthogonalLoop=1;jettySize=auto;html=1;strokeWidth=2;" parent="1" edge="1">
                    <mxGeometry relative="1" as="geometry">
                        <mxPoint x="3352.750000000001" y="1494.38" as="targetPoint"/>
                        <mxPoint x="3352.500000000001" y="1554.38" as="sourcePoint"/>
                        <Array as="points">
                            <mxPoint x="3353" y="1524"/>
                        </Array>
                    </mxGeometry>
                </mxCell>
                <mxCell id="327" value="" style="html=1;aspect=fixed;strokeColor=none;shadow=0;align=center;verticalAlign=top;shape=mxgraph.gcp2.check;fontFamily=Times New Roman;fontSize=20;fillColor=#6C8EBF;" parent="1" vertex="1">
                    <mxGeometry x="3340" y="1169.37" width="25" height="20" as="geometry"/>
                </mxCell>
                <mxCell id="328" value="" style="html=1;aspect=fixed;strokeColor=none;shadow=0;align=center;verticalAlign=top;shape=mxgraph.gcp2.check;fontFamily=Times New Roman;fontSize=20;fillColor=#6C8EBF;" parent="1" vertex="1">
                    <mxGeometry x="3338.3" y="1410" width="25" height="20" as="geometry"/>
                </mxCell>
            </root>
        </mxGraphModel>
    </diagram>
</mxfile>